<svg xmlns="http://www.w3.org/2000/svg" viewBox="0 0 1132 320.79"><title>Asset 1</title><g id="Layer_2" data-name="Layer 2" fill="#262626"><g id="Layer_1-2" data-name="Layer 1"><path d="M377,0c5.48,1.78,10.95,3.61,16.45,5.33,4.86,1.51,6.63,4.27,6,9.69-1,9.26-.89,18.63-1.47,27.94-.21,3.34,1,4.24,4.21,4.38,11.15.48,22.28,1.21,33.41,1.95,5.53.37,6.7,1.87,6.07,7.27-1,8.32-3.66,11-11.81,11.16-10.48.16-21,0-31.83,0-.37,3-.86,5.4-.93,7.83-.75,26.81-1.7,53.62-2,80.43-.09,8.75,1.53,17.52,2.57,26.26a21.66,21.66,0,0,0,2,6.12c3.89,8.69,9.84,10.22,16.83,3.69A56.65,56.65,0,0,0,435,152.9c1.15-19.7,2.74-39.38,13.37-56.65,4.19-6.79,9.59-13.43,15.91-18.2,13.51-10.17,31.74-7.23,43.17,5.65,1.14,1.29,2.33,2.54,4.19,4.56.23-2.45.36-3.71.45-5,.32-4,2.61-6,6.48-6.2a31.37,31.37,0,0,1,5.48.2c14.85,1.9,17,5.1,16.59,19.88q-1,37-.72,73.94A66.38,66.38,0,0,0,543.85,192c3.57,10.16,13.85,11.19,20,2.3,4.9-7,7.76-14.44,6.79-23.72-2.72-26-.87-51.65,12.55-75a60.8,60.8,0,0,1,12.39-15.44c14.31-12.43,34.47-10.36,46.69,4.12,1,1.12,1.86,2.28,2.76,3.39.45-.26.91-.38.93-.56,1.13-9.28,4.13-11.45,13.57-9.71,1.14.21,2.26.56,3.39.82,11.14,2.58,12.16,4.16,12,15.51-.43,27.49-.67,55-1,82.48,0,1.26.18,2.52.36,4.85a33,33,0,0,0,3.14-3.33c13.46-19.8,23.95-41,30.29-64.17.89-3.28.72-5.52-2.17-8.16-6.45-5.89-7.39-15.42-3.31-24.51,3.66-8.13,10.21-12.3,18.93-12,8.35.24,12.85,4.85,12.81,13.26,0,2.79-.36,5.57-.61,9.3L758.51,87c2.45-.43,4.91-.93,7.38-1.16,11.78-1.07,18.83,6.52,16.63,18.14-1.54,8.17-3.68,16.22-5.26,24.38-3.56,18.43-5.37,36.94-.49,55.42a38.46,38.46,0,0,0,5,11.28c4.17,6.29,12,7.09,17.2,1.68,6-6.2,9-13.46,7.75-22.6-3.79-28.62-2.1-56.42,13.54-82,13.84-22.61,41.19-28.83,60.49-4.21a14.5,14.5,0,0,0,.8-2.71c.54-6.8,2.34-8.53,9.07-8.14a44.53,44.53,0,0,1,7.87,1.19c10.28,2.49,11.68,4.41,11.52,15-.37,23.49-1,47-.93,70.47,0,8.58,1.42,17.21,2.82,25.72.8,4.82,3.11,9.32,8.74,10.43s9.63-2.07,12.54-6.38c6.92-10.24,11.39-21.43,11.52-34,.27-25.5.38-51,.57-76.49.05-6.89,2-8.59,8.79-7.9a16.46,16.46,0,0,1,2,.24c19.25,4.35,16.83,2.84,16.91,20.26.06,10.33,0,20.66,0,31v4.72l1.39.32c.65-1.54,1.37-3.06,1.93-4.63,4.69-13.14,9-26.42,14.12-39.4,5.45-13.89,11.11-15.92,24.82-10.17,8.46,3.55,12.39,9.72,12.62,19,.42,17.47,1.41,34.93,2.23,52.39a11.07,11.07,0,0,0,1.94,5.88c1.06-5.12,1.72-10.35,3.26-15.32,5.79-18.7,11.61-37.4,18-55.92,2.79-8.16,8.06-10.39,16.21-7.7a102.55,102.55,0,0,1,15,6.51c5.27,2.73,7,7.43,6.78,13.37-.59,17.81-1.39,35.65-1,53.46.24,12.06,2,24.12,3.68,36.12.44,3.29,2.36,6.61,4.31,9.41,4.17,6,11.57,6,15.21-.33,2.79-4.81,4.37-10.33,6.25-15.63,1.11-3.12,1.42-6.56,2.75-9.56a7.15,7.15,0,0,1,4.36-3.82c1.07-.19,2.67,2.24,3.94,3.57A11.71,11.71,0,0,1,1132,171v4c-1.09,4.33-2,8.7-3.32,13a82.74,82.74,0,0,1-4.31,12.19c-12.2,25.25-36.59,18.33-47.06,5a52.18,52.18,0,0,1-10.92-29.53c-1.17-19.76-1.47-39.57-2.11-59.35-.07-2.16,0-4.33,0-6.5a10.6,10.6,0,0,0-.8-2.09,32.88,32.88,0,0,0-2.51,3.94c-12,27.58-19.19,56.3-19.93,86.47-.13,5.07-2.79,7.16-7.27,7.8-11,1.56-19.64-3.6-22.2-14.59a242.53,242.53,0,0,1-5.08-31.48c-1.39-14.24-1.87-28.57-2.76-42.86-.14-2.27-.35-4.54-.52-6.82l-1.44-.63c-1.23,1.49-2.77,2.82-3.64,4.5a163,163,0,0,0-18.36,66.33c-.52,9-.7,18-1,27-.26,7-1.9,9.21-8.84,9.32a92.76,92.76,0,0,1-17.7-1.81c-3.72-.66-5.86-3.38-6-7.53a76.4,76.4,0,0,0-1.53-12c-6.71,12.84-14.72,24-31.24,21.37-15.32-2.44-23.22-13-26.75-28.51-2.28,3.38-3.94,6-5.72,8.48-6.13,8.66-14,15.11-24.15,18.48-15.51,5.12-31-.23-40.26-13.93-1.18-1.75-2.34-3.52-3.8-5.7-2.14,3.24-3.77,6.1-5.78,8.67-14.18,18.16-37,16.67-50.63-3.26-7.83-11.47-9.75-24.58-10.2-38-.57-16.76,1.95-33.18,5.56-49.48.35-1.57.47-3.19.78-5.3-7.78,0-15-.17-22.3.19-1,0-2.32,2.48-2.89,4a287.7,287.7,0,0,1-31.68,62.6c-5.4,8-11.33,15.62-17.36,23.15a17,17,0,0,0-4,11.73c.25,16.14.82,32.36-.49,48.41a122.21,122.21,0,0,1-7.49,33.4c-6.4,16.69-19.22,27.3-37.4,29-14.07,1.32-27-2.91-35.61-14.91-8.47-11.78-7.5-24.62-.86-36.81a84.34,84.34,0,0,1,13.44-18.47C617.38,238.46,629.25,226.68,642,216c7.12-6,6.31-12.42,5.56-21.42-10,12.81-21,21.87-36.6,22.32-16.49.48-26.68-9.18-34.4-23.46-6.94,14-15.82,24.92-32.21,23.21-15.91-1.66-24.13-12.52-27.45-28.7-10.28,17.58-23.19,30.22-43.75,28.76-21.44-1.51-29.48-17.95-35.58-36.77-1.06,1.9-1.6,3-2.26,4-5.12,7.92-9.44,16.54-15.58,23.57-14.65,16.8-34.12,9.08-43.18-4.36-7.19-10.66-9.53-22.92-11.16-35.37-.11-.8-.23-1.6-.57-4.05-1.48,2.69-2.34,4.09-3.05,5.56-7.28,15-15.77,29.09-30.24,38.27-21,13.31-42.87,12.57-64.91,3.06-7.53-3.25-8.52-7-5.24-14.32a32.44,32.44,0,0,1,3-5.18c5.06-7.31,8.23-7.73,15.62-2.8,4.12,2.74,8.33,5.63,12.92,7.3,8.1,2.94,15.46-1,18.4-9.05,3.76-10.38,1.37-20.07-5.3-28.12-7.17-8.66-15.54-16.33-24-25-1.82,2.62-3.07,4.27-4.15,6-11.68,18.76-22.84,37.87-35.23,56.14-4.62,6.81-11.49,12.57-18.39,17.27-12.95,8.81-25.7,3.77-29.44-11.53a115.6,115.6,0,0,1-3.54-27.61c.12-23,1.27-45.94,2-68.91.06-2.1,0-4.2,0-7.69-2.45,1.81-4,2.61-5.1,3.82-11.63,12.73-19.2,27.89-25.37,43.75-8.16,21-14.56,42.5-17.23,64.93-.63,5.25-3.14,7.35-8,7.34-2.66,0-5.33-.1-8-.31-5.17-.4-9.38-3-10.21-8a172.38,172.38,0,0,1-2.7-27.16c-.14-32.66.24-65.32.45-98,0-8.16,1.41-9.31,9.48-8.2,1,.14,2,.27,3,.49,13.29,3,14.18,4.08,14.11,17.48-.09,16.5-.29,33-.42,49.49,0,1.71.14,3.41.22,5.12l1.42.24c2.83-7.67,5.64-15.35,8.49-23,4.6-12.35,9.76-24.43,18-34.87a59.79,59.79,0,0,1,8.19-8.71c12.16-10.31,32.94-6.72,40.74,7.24,1.58,2.83,1.83,6.72,1.78,10.1-.34,23.65-1,47.29-1.32,70.94a69.35,69.35,0,0,0,1.78,15.3c1.07,4.93,4.66,6.28,8.47,3a49.23,49.23,0,0,0,10-11.62c9.69-16.27,18.8-32.89,28.41-49.21,2.25-3.82-.12-5.79-1.81-8.31-6.64-9.92-6.16-21.85,1.3-32.7,7.15-10.41,19.56-15.91,30.15-13.39,7.28,1.74,10.6,6.64,9.25,14-1.8,9.76-7,17.88-12.75,25.69-.78,1-1.6,2.07-2.87,3.69,7.27,5.52,14.57,10.65,21.4,16.34,6.48,5.41,13,10.91,18.55,17.25a31.82,31.82,0,0,1,7.48,26.09,6.66,6.66,0,0,0,1.09,4.48c2.8-3.14,5.9-6.06,8.37-9.44,9.2-12.64,15.13-26.23,14.66-42.5-.54-18.64.05-37.31.43-56,.08-4.13-1.05-5.52-5.24-5.44-8,.15-16-.22-24-.36-5.13-.1-6.52-1.49-6.35-6.59a23.14,23.14,0,0,1,.61-4.44c2.15-9.73,3.48-10.82,13.3-10.54,7.15.2,14.3.56,21.45.8a5.83,5.83,0,0,0,1.68-.59c.4-10.39.81-20.85,1.21-31.3.19-5.12.46-10.2,4.64-14Zm87.67,152.51c0,2.16-.08,4.33,0,6.49.47,11,1.44,22,7.18,31.78,6,10.2,15.84,11.62,24,3.15a43.76,43.76,0,0,0,8.55-12.66c7.6-17.71,8.62-36.48,7.11-55.38a70.05,70.05,0,0,0-4.27-19.36c-5.59-14.51-21-16.73-30.77-4.66a39.73,39.73,0,0,0-5.92,10.88C465.73,125.54,464.77,139,464.67,152.51Zm416.76-12.39c0-12.72-.25-23.88-4.89-34.35-2.78-6.28-7.14-10.89-14.42-11.52s-13.36,2.34-17,8.44a67.62,67.62,0,0,0-7.43,17.78,130.53,130.53,0,0,0-2.47,48.58,71.46,71.46,0,0,0,6.84,22.64c4.79,9.36,15,10.62,22.56,3.15a48.25,48.25,0,0,0,9.76-14.75C880.17,166.93,881.65,152.85,881.43,140.12Zm-234-4.31c-1.59-9.62-2.18-19.54-5-28.79-4.5-14.73-20.73-17.38-30.25-5.18a54.38,54.38,0,0,0-8.33,16.27c-4.74,14.38-5.67,29.37-4.73,44.4.63,10.11,1.87,20.25,7.42,29.17,5.28,8.52,14.14,10.64,21.5,3.92a47.14,47.14,0,0,0,11.11-16.09C645,165.71,646.39,150.91,647.47,135.81Zm1.93,93.94a19.51,19.51,0,0,0-3,2.11C637.86,241.4,629,250.65,621,260.65c-6.65,8.35-11.78,17.8-12.75,28.81-.58,6.6.58,12.89,6.61,16.72,6.39,4.05,13,3.07,19.38-.52,5.18-2.91,7.42-7.94,9.26-13.15,4.43-12.55,5.49-25.64,5.88-38.8C649.58,246,649.4,238.22,649.4,229.75Z"/><path d="M69,0c3.82,1.52,7.7,2.9,11.43,4.59,5.25,2.37,8.16,6,8.11,12.36-.44,56.78-.4,113.57-1.05,170.34-.17,15.18-4.08,29.93-14.15,41.77-4.59,5.37-11.22,9.06-17.16,13.17-1.16.8-4,.68-5-.21s-1-3.46-.48-5c6.12-17.23,7.05-35.14,7.15-53.16.14-24.65.11-49.31.21-74q.18-40.22.46-80.44c0-3.36,0-6.71,0-10.07l-2.18-.84c-2.66,2.52-5.6,4.8-7.92,7.59-11.7,14-18.27,30.38-20.8,48.37-2.36,16.71-1.42,32.86,8.53,47.45,1,1.49.6,4,.85,6-2.19.17-4.67,1.1-6.53.4C15.63,122.72,6.23,112,2.08,96.64,1.39,94.09.69,91.55,0,89V83c.48-1.72,1.05-3.42,1.42-5.16C7.61,48.22,22.86,24.62,48.08,7.68,52.23,4.89,56.68,2.55,61,0Z"/></g></g></svg>